<?xml version="1.0" standalone="no"?><!DOCTYPE svg PUBLIC "-//W3C//DTD SVG 1.1//EN" "http://www.w3.org/Graphics/SVG/1.1/DTD/svg11.dtd"><svg class="icon" width="200px" height="200.00px" viewBox="0 0 1024 1024" version="1.1" xmlns="http://www.w3.org/2000/svg"><path fill="#ffffff" d="M695.808 85.333333H328.192C264.832 85.333333 213.333333 133.12 213.333333 192v640C213.333333 890.88 264.832 938.666667 328.192 938.666667h367.616C759.168 938.666667 810.666667 890.88 810.666667 832v-640C810.666667 133.12 759.168 85.333333 695.808 85.333333z m-252.757333 746.666667c0-35.413333 28.629333-64 64-64a64 64 0 1 1-64 64zM305.237333 682.666667V213.418667a42.666667 42.666667 0 0 1 42.666667-42.666667h328.234667a42.666667 42.666667 0 0 1 42.666666 42.666667v469.333333a42.666667 42.666667 0 0 1-42.666666 42.666667l-328.277334-0.128a42.666667 42.666667 0 0 1-42.666666-42.666667z" /></svg>